/* XPM */
static char*dse[]={
"32 32 8 1",
"d c #008000",
"f c #00ff00",
"c c #004000",
"b c #000000",
"a c #303030",
"e c #00c000",
". c #dcdcdc",
"# c #ffffff",
".........#......................",
"......#####.............#######.",
".....#######...........#########",
"......#####.............#######.",
".......#........................",
"..................aa............",
"...........bb....abba...........",
".........bbbb....abba...........",
".......bbbbb......aa............",
".....bbbbbb....................c",
"....bbbbbb...................ccc",
"....bbbbb...................ccdd",
"...bbbbbbb................ccdddd",
"...bbbbbbbcccc.....ccc...ccddddd",
"..cbbbbbbbdddcc..cccdcc.ccdddefe",
"cccccdddddddddccccddddcccddfeeee",
"ddddddddddffdddccddddddddddeefee",
"dddfeeddeeeeeeeddddeefeeeddeeeee",
"deeeeeddeeeeeeeeddeeeeeedeedeeee",
"deeeedeeeeeeeeedeedfeeeeeeeeeeee",
"eeeeeeeeeeeeeeeeeeeeeeeeeefeeeee",
"eeeeeeeeeeeeeeeeeeeefeefeffeffee",
"eefefeeefeefefeeeeeeefeefeeefeee",
"eeeeeeffeeefeeeeefeeeeeeeeffffee",
"eeefefeeeeffeeeeefeeffefeeeeeeff",
"eeffefeeeeefeeeefeeefeffeeefffef",
"eeeeeeeeeeefeefefeeffefefefefeee",
"eeefefefeffefeeeefeeeeefffeeeeef",
"ffeefffeefeffeeeefeeeeeffeffefef",
"feeeeeefeffffeeefeeeeffefeeefeef",
"feefeefeeeffeeffeeeefefefffefefe",
"eeeefefefefefeeeeeeeeeefeeeeeeee"};
